<svg xmlns="http://www.w3.org/2000/svg" viewBox="-50 -100 100 120" width="100" height="120">
    <g transform="translate(0, 15)">
        <polygon points="0,-20 -14,-13.0 -14,-25.0 0,-32" fill="#e6994d" stroke="#000" stroke-width="2" stroke-linejoin="round"/>
<polygon points="0,-20 14,-13.0 14,-25.0 0,-32" fill="#cc8033" stroke="#000" stroke-width="2" stroke-linejoin="round"/>
<polygon points="0,-32 -14,-25.0 0,-18.0 14,-25.0" fill="#ffb366" stroke="#000" stroke-width="2" stroke-linejoin="round"/> <!-- Head -->
        <!-- Ears -->
        <polygon points="-7,-32 -11,-30.0 -11,-38.0 -7,-40" fill="#e68019" stroke="#000" stroke-width="2" stroke-linejoin="round"/>
<polygon points="-7,-32 -3,-30.0 -3,-38.0 -7,-40" fill="#cc6600" stroke="#000" stroke-width="2" stroke-linejoin="round"/>
<polygon points="-7,-40 -11,-38.0 -7,-36.0 -3,-38.0" fill="#ff9933" stroke="#000" stroke-width="2" stroke-linejoin="round"/>
        <polygon points="7,-32 3,-30.0 3,-38.0 7,-40" fill="#e68019" stroke="#000" stroke-width="2" stroke-linejoin="round"/>
<polygon points="7,-32 11,-30.0 11,-38.0 7,-40" fill="#cc6600" stroke="#000" stroke-width="2" stroke-linejoin="round"/>
<polygon points="7,-40 3,-38.0 7,-36.0 11,-38.0" fill="#ff9933" stroke="#000" stroke-width="2" stroke-linejoin="round"/>
        <polygon points="10,0 -8,9.0 -8,-3.0 10,-12" fill="#ffb366" stroke="#000" stroke-width="2" stroke-linejoin="round"/>
<polygon points="10,0 22,6.0 22,-6.0 10,-12" fill="#e6994d" stroke="#000" stroke-width="2" stroke-linejoin="round"/>
<polygon points="10,-12 -8,-3.0 4,3.0 22,-6.0" fill="#ffcc99" stroke="#000" stroke-width="2" stroke-linejoin="round"/> <!-- Body -->
        <!-- Tail -->
        <polygon points="20,-5 16,-3.0 16,-18.0 20,-20" fill="#e6994d" stroke="#000" stroke-width="2" stroke-linejoin="round"/>
<polygon points="20,-5 24,-3.0 24,-18.0 20,-20" fill="#cc8033" stroke="#000" stroke-width="2" stroke-linejoin="round"/>
<polygon points="20,-20 16,-18.0 20,-16.0 24,-18.0" fill="#ffb366" stroke="#000" stroke-width="2" stroke-linejoin="round"/>
        <!-- Legs -->
        <polygon points="-2,12 -6,14.0 -6,6.0 -2,4" fill="#cc8033" stroke="#000" stroke-width="2" stroke-linejoin="round"/>
<polygon points="-2,12 2,14.0 2,6.0 -2,4" fill="#b36626" stroke="#000" stroke-width="2" stroke-linejoin="round"/>
<polygon points="-2,4 -6,6.0 -2,8.0 2,6.0" fill="#e6994d" stroke="#000" stroke-width="2" stroke-linejoin="round"/>
        <polygon points="8,12 4,14.0 4,6.0 8,4" fill="#cc8033" stroke="#000" stroke-width="2" stroke-linejoin="round"/>
<polygon points="8,12 12,14.0 12,6.0 8,4" fill="#b36626" stroke="#000" stroke-width="2" stroke-linejoin="round"/>
<polygon points="8,4 4,6.0 8,8.0 12,6.0" fill="#e6994d" stroke="#000" stroke-width="2" stroke-linejoin="round"/>
        <polygon points="-2,-2 -6,0.0 -6,-8.0 -2,-10" fill="#cc8033" stroke="#000" stroke-width="2" stroke-linejoin="round"/>
<polygon points="-2,-2 2,0.0 2,-8.0 -2,-10" fill="#b36626" stroke="#000" stroke-width="2" stroke-linejoin="round"/>
<polygon points="-2,-10 -6,-8.0 -2,-6.0 2,-8.0" fill="#e6994d" stroke="#000" stroke-width="2" stroke-linejoin="round"/>
        <polygon points="8,-2 4,0.0 4,-8.0 8,-10" fill="#cc8033" stroke="#000" stroke-width="2" stroke-linejoin="round"/>
<polygon points="8,-2 12,0.0 12,-8.0 8,-10" fill="#b36626" stroke="#000" stroke-width="2" stroke-linejoin="round"/>
<polygon points="8,-10 4,-8.0 8,-6.0 12,-8.0" fill="#e6994d" stroke="#000" stroke-width="2" stroke-linejoin="round"/>
    </g>
</svg>