<svg xmlns="http://www.w3.org/2000/svg" viewBox="-50 -100 100 120" width="100" height="120">
    <g transform="translate(0, 0)">
        <polygon points="0,-15 -20,-5.0 -20,-25.0 0,-35" fill="#b3b3b3" stroke="#000" stroke-width="2" stroke-linejoin="round"/>
<polygon points="0,-15 20,-5.0 20,-25.0 0,-35" fill="#999999" stroke="#000" stroke-width="2" stroke-linejoin="round"/>
<polygon points="0,-35 -20,-25.0 0,-15.0 20,-25.0" fill="#cccccc" stroke="#000" stroke-width="2" stroke-linejoin="round"/> <!-- Head -->
        <!-- Eyes -->
        <polygon points="5,-20 10,-17.5 10,-15 5,-17.5" fill="#00ffcc" />
        <polygon points="12,-16.5 17,-14 17,-11.5 12,-14" fill="#00ffcc" />
        <!-- Antenna -->
        <polygon points="0,-35 -2,-34.0 -2,-49.0 0,-50" fill="#cc2952" stroke="#000" stroke-width="2" stroke-linejoin="round"/>
<polygon points="0,-35 2,-34.0 2,-49.0 0,-50" fill="#991f3d" stroke="#000" stroke-width="2" stroke-linejoin="round"/>
<polygon points="0,-50 -2,-49.0 0,-48.0 2,-49.0" fill="#ff3366" stroke="#000" stroke-width="2" stroke-linejoin="round"/>
        <polygon points="0,10 -18,19.0 -18,-6.0 0,-15" fill="#8c8c8c" stroke="#000" stroke-width="2" stroke-linejoin="round"/>
<polygon points="0,10 18,19.0 18,-6.0 0,-15" fill="#737373" stroke="#000" stroke-width="2" stroke-linejoin="round"/>
<polygon points="0,-15 -18,-6.0 0,3.0 18,-6.0" fill="#a6a6a6" stroke="#000" stroke-width="2" stroke-linejoin="round"/> <!-- Body -->
        <polygon points="-20,10 -28,14.0 -28,-4.0 -20,-8" fill="#bfbfbf" stroke="#000" stroke-width="2" stroke-linejoin="round"/>
<polygon points="-20,10 -12,14.0 -12,-4.0 -20,-8" fill="#a6a6a6" stroke="#000" stroke-width="2" stroke-linejoin="round"/>
<polygon points="-20,-8 -28,-4.0 -20,0.0 -12,-4.0" fill="#d9d9d9" stroke="#000" stroke-width="2" stroke-linejoin="round"/> <!-- Arm L -->
        <polygon points="20,10 12,14.0 12,-4.0 20,-8" fill="#bfbfbf" stroke="#000" stroke-width="2" stroke-linejoin="round"/>
<polygon points="20,10 28,14.0 28,-4.0 20,-8" fill="#a6a6a6" stroke="#000" stroke-width="2" stroke-linejoin="round"/>
<polygon points="20,-8 12,-4.0 20,0.0 28,-4.0" fill="#d9d9d9" stroke="#000" stroke-width="2" stroke-linejoin="round"/> <!-- Arm R -->
        <!-- Track / Wheel Base -->
        <polygon points="0,35 -15,42.5 -15,32.5 0,25" fill="#262626" stroke="#000" stroke-width="2" stroke-linejoin="round"/>
<polygon points="0,35 15,42.5 15,32.5 0,25" fill="#0d0d0d" stroke="#000" stroke-width="2" stroke-linejoin="round"/>
<polygon points="0,25 -15,32.5 0,40.0 15,32.5" fill="#404040" stroke="#000" stroke-width="2" stroke-linejoin="round"/>
    </g>
</svg>